<mxfile host="Electron" agent="Mozilla/5.0 (Windows NT 10.0; Win64; x64) AppleWebKit/537.36 (KHTML, like Gecko) draw.io/26.0.15 Chrome/132.0.6834.196 Electron/34.2.0 Safari/537.36" version="26.0.15">
  <diagram name="第 1 页" id="UpiEm3J04xxospoppyf7">
    <mxGraphModel dx="724" dy="428" grid="0" gridSize="10" guides="1" tooltips="1" connect="1" arrows="1" fold="1" page="0" pageScale="1" pageWidth="827" pageHeight="1169" math="0" shadow="0">
      <root>
        <mxCell id="0" />
        <mxCell id="1" parent="0" />
        <mxCell id="SJWWZwoOdzPg67wZ-Jih-3" style="edgeStyle=orthogonalEdgeStyle;rounded=0;orthogonalLoop=1;jettySize=auto;html=1;entryX=0;entryY=0.5;entryDx=0;entryDy=0;" edge="1" parent="1" source="SJWWZwoOdzPg67wZ-Jih-1" target="SJWWZwoOdzPg67wZ-Jih-2">
          <mxGeometry relative="1" as="geometry" />
        </mxCell>
        <mxCell id="SJWWZwoOdzPg67wZ-Jih-1" value="用户" style="shape=umlActor;verticalLabelPosition=bottom;verticalAlign=top;html=1;outlineConnect=0;" vertex="1" parent="1">
          <mxGeometry x="40" y="170" width="30" height="60" as="geometry" />
        </mxCell>
        <mxCell id="SJWWZwoOdzPg67wZ-Jih-14" style="edgeStyle=orthogonalEdgeStyle;rounded=0;orthogonalLoop=1;jettySize=auto;html=1;exitX=1;exitY=0.25;exitDx=0;exitDy=0;entryX=0;entryY=0.25;entryDx=0;entryDy=0;" edge="1" parent="1" source="SJWWZwoOdzPg67wZ-Jih-2" target="SJWWZwoOdzPg67wZ-Jih-13">
          <mxGeometry relative="1" as="geometry" />
        </mxCell>
        <mxCell id="SJWWZwoOdzPg67wZ-Jih-2" value="业务后端&lt;div&gt;（用户 + 题目）&lt;/div&gt;" style="rounded=0;whiteSpace=wrap;html=1;" vertex="1" parent="1">
          <mxGeometry x="200" y="170" width="120" height="60" as="geometry" />
        </mxCell>
        <mxCell id="SJWWZwoOdzPg67wZ-Jih-4" value="1. 提交题目代码" style="text;html=1;align=center;verticalAlign=middle;resizable=0;points=[];autosize=1;strokeColor=none;fillColor=none;" vertex="1" parent="1">
          <mxGeometry x="75" y="168" width="110" height="30" as="geometry" />
        </mxCell>
        <mxCell id="SJWWZwoOdzPg67wZ-Jih-5" value="数据库" style="shape=cylinder3;whiteSpace=wrap;html=1;boundedLbl=1;backgroundOutline=1;size=15;" vertex="1" parent="1">
          <mxGeometry x="200" y="300" width="120" height="60" as="geometry" />
        </mxCell>
        <mxCell id="SJWWZwoOdzPg67wZ-Jih-8" style="edgeStyle=orthogonalEdgeStyle;rounded=0;orthogonalLoop=1;jettySize=auto;html=1;exitX=0.25;exitY=1;exitDx=0;exitDy=0;entryX=0.245;entryY=0.044;entryDx=0;entryDy=0;entryPerimeter=0;" edge="1" parent="1" source="SJWWZwoOdzPg67wZ-Jih-2" target="SJWWZwoOdzPg67wZ-Jih-5">
          <mxGeometry relative="1" as="geometry" />
        </mxCell>
        <mxCell id="SJWWZwoOdzPg67wZ-Jih-9" value="2.校验&lt;div&gt;用户是否登录&lt;/div&gt;&lt;div&gt;题目是否存在&lt;/div&gt;&lt;div&gt;获取题目信息&lt;/div&gt;" style="text;html=1;align=center;verticalAlign=middle;resizable=0;points=[];autosize=1;strokeColor=none;fillColor=none;" vertex="1" parent="1">
          <mxGeometry x="130" y="230" width="100" height="70" as="geometry" />
        </mxCell>
        <mxCell id="SJWWZwoOdzPg67wZ-Jih-11" value="" style="endArrow=classic;html=1;rounded=0;entryX=0.75;entryY=1;entryDx=0;entryDy=0;exitX=0.741;exitY=0.044;exitDx=0;exitDy=0;exitPerimeter=0;" edge="1" parent="1" source="SJWWZwoOdzPg67wZ-Jih-5" target="SJWWZwoOdzPg67wZ-Jih-2">
          <mxGeometry width="50" height="50" relative="1" as="geometry">
            <mxPoint x="290" y="300" as="sourcePoint" />
            <mxPoint x="340" y="260" as="targetPoint" />
          </mxGeometry>
        </mxCell>
        <mxCell id="SJWWZwoOdzPg67wZ-Jih-12" value="3. 返回信息" style="text;html=1;align=center;verticalAlign=middle;resizable=0;points=[];autosize=1;strokeColor=none;fillColor=none;" vertex="1" parent="1">
          <mxGeometry x="280" y="250" width="80" height="30" as="geometry" />
        </mxCell>
        <mxCell id="SJWWZwoOdzPg67wZ-Jih-17" style="edgeStyle=orthogonalEdgeStyle;rounded=0;orthogonalLoop=1;jettySize=auto;html=1;exitX=0;exitY=0.75;exitDx=0;exitDy=0;entryX=1;entryY=0.75;entryDx=0;entryDy=0;" edge="1" parent="1" source="SJWWZwoOdzPg67wZ-Jih-13" target="SJWWZwoOdzPg67wZ-Jih-2">
          <mxGeometry relative="1" as="geometry" />
        </mxCell>
        <mxCell id="SJWWZwoOdzPg67wZ-Jih-13" value="判题模块" style="rounded=0;whiteSpace=wrap;html=1;" vertex="1" parent="1">
          <mxGeometry x="440" y="170" width="120" height="60" as="geometry" />
        </mxCell>
        <mxCell id="SJWWZwoOdzPg67wZ-Jih-15" value="4. 提交代码还有用例" style="text;html=1;align=center;verticalAlign=middle;resizable=0;points=[];autosize=1;strokeColor=none;fillColor=none;" vertex="1" parent="1">
          <mxGeometry x="320" y="148" width="130" height="30" as="geometry" />
        </mxCell>
        <mxCell id="SJWWZwoOdzPg67wZ-Jih-16" value="5. 判题&lt;div&gt;编译代码&lt;/div&gt;&lt;div&gt;执行代码&lt;/div&gt;&lt;div&gt;校验结果&lt;/div&gt;" style="text;html=1;align=center;verticalAlign=middle;resizable=0;points=[];autosize=1;strokeColor=none;fillColor=none;" vertex="1" parent="1">
          <mxGeometry x="490" y="230" width="70" height="70" as="geometry" />
        </mxCell>
        <mxCell id="SJWWZwoOdzPg67wZ-Jih-18" value="6. 返回结果" style="text;html=1;align=center;verticalAlign=middle;resizable=0;points=[];autosize=1;strokeColor=none;fillColor=none;" vertex="1" parent="1">
          <mxGeometry x="360" y="210" width="80" height="30" as="geometry" />
        </mxCell>
        <mxCell id="SJWWZwoOdzPg67wZ-Jih-19" style="edgeStyle=orthogonalEdgeStyle;rounded=0;orthogonalLoop=1;jettySize=auto;html=1;exitX=0;exitY=0.75;exitDx=0;exitDy=0;entryX=1;entryY=0.75;entryDx=0;entryDy=0;" edge="1" parent="1" source="SJWWZwoOdzPg67wZ-Jih-2">
          <mxGeometry relative="1" as="geometry">
            <mxPoint x="190" y="215" as="sourcePoint" />
            <mxPoint x="70" y="215" as="targetPoint" />
          </mxGeometry>
        </mxCell>
        <mxCell id="SJWWZwoOdzPg67wZ-Jih-20" value="6. 返回结果" style="text;html=1;align=center;verticalAlign=middle;resizable=0;points=[];autosize=1;strokeColor=none;fillColor=none;" vertex="1" parent="1">
          <mxGeometry x="110" y="210" width="80" height="30" as="geometry" />
        </mxCell>
      </root>
    </mxGraphModel>
  </diagram>
</mxfile>
